<svg width="135" height="40" viewBox="0 0 135 40" fill="none" xmlns="http://www.w3.org/2000/svg">
<rect x="0.5" y="0.5" width="134" height="39" rx="6.5" fill="black" stroke="#A6A6A6"/>
<path d="M29.1209 18.7795C29.1326 17.8703 29.3742 16.9787 29.823 16.1877C30.2719 15.3969 30.9135 14.7325 31.6883 14.2562C31.196 13.5532 30.5468 12.9749 29.7921 12.5668C29.0372 12.1588 28.1977 11.9323 27.3401 11.9055C25.5107 11.7134 23.737 13.0001 22.8048 13.0001C21.8545 13.0001 20.4191 11.9245 18.8735 11.9563C17.8737 11.9886 16.8994 12.2794 16.0454 12.8001C15.1914 13.321 14.487 14.0542 14.0005 14.9282C11.8935 18.5761 13.4652 23.9373 15.4835 26.886C16.4933 28.33 17.6735 29.9428 19.2177 29.8856C20.7289 29.8229 21.2932 28.9221 23.1172 28.9221C24.9244 28.9221 25.4539 29.8856 27.0295 29.8493C28.651 29.8229 29.6727 28.3989 30.647 26.9413C31.3725 25.9126 31.9309 24.7754 32.3013 23.5722C31.3591 23.1738 30.5552 22.5069 29.9897 21.6546C29.4242 20.8023 29.122 19.8024 29.1209 18.7795Z" fill="white"/>
<path d="M26.1449 9.96614C27.029 8.9048 27.4646 7.54066 27.3591 6.16335C26.0084 6.30521 24.7607 6.95078 23.8646 7.9714C23.4265 8.47 23.091 9.05002 22.8771 9.67841C22.6634 10.3068 22.5755 10.9712 22.6186 11.6334C23.2942 11.6404 23.9627 11.494 24.5734 11.2052C25.1843 10.9164 25.7216 10.4928 26.1449 9.96614Z" fill="white"/>
<path d="M48.2226 26.2303H43.0658L41.8274 29.887H39.6432L44.5276 16.3582H46.7969L51.6814 29.887H49.4599L48.2226 26.2303ZM43.5998 24.5429H47.6874L45.6724 18.6084H45.6161L43.5998 24.5429Z" fill="white"/>
<path d="M62.23 24.9557C62.23 28.0209 60.5895 29.9902 58.1138 29.9902C57.4867 30.023 56.863 29.8785 56.3141 29.5732C55.7653 29.2681 55.3134 28.8146 55.0104 28.2645H54.9635V33.15H52.9389V20.0234H54.8986V21.664H54.9359C55.2529 21.1165 55.7123 20.6653 56.2653 20.3583C56.8184 20.0511 57.4443 19.8998 58.0765 19.9202C60.5799 19.9202 62.23 21.8991 62.23 24.9557ZM60.1491 24.9557C60.1491 22.9588 59.117 21.6459 57.5425 21.6459C55.9956 21.6459 54.955 22.9864 54.955 24.9557C54.955 26.9431 55.9956 28.2741 57.5425 28.2741C59.117 28.2741 60.1491 26.9708 60.1491 24.9557Z" fill="white"/>
<path d="M73.0863 24.9557C73.0863 28.0209 71.4457 29.9902 68.9699 29.9902C68.3428 30.023 67.7191 29.8785 67.1702 29.5732C66.6214 29.2681 66.1696 28.8146 65.8665 28.2645H65.8197V33.15H63.795V20.0234H65.7547V21.664H65.792C66.109 21.1165 66.5684 20.6653 67.1214 20.3583C67.6745 20.0513 68.3004 19.8998 68.9326 19.9202C71.4361 19.9202 73.0863 21.8991 73.0863 24.9557ZM71.0052 24.9557C71.0052 22.9588 69.9732 21.6459 68.3986 21.6459C66.8517 21.6459 65.8111 22.9864 65.8111 24.9557C65.8111 26.9431 66.8517 28.2741 68.3986 28.2741C69.9732 28.2741 71.0052 26.9708 71.0052 24.9557Z" fill="white"/>
<path d="M80.2613 26.1175C80.4113 27.4591 81.7146 28.34 83.4956 28.34C85.2021 28.34 86.4298 27.4591 86.4298 26.2493C86.4298 25.1993 85.6893 24.5705 83.9361 24.1396L82.1827 23.7172C79.6984 23.1172 78.5452 21.9554 78.5452 20.0702C78.5452 17.736 80.5794 16.1326 83.4679 16.1326C86.3266 16.1326 88.2863 17.736 88.3524 20.0702H86.3086C86.1862 18.7201 85.0701 17.9051 83.4392 17.9051C81.8082 17.9051 80.6921 18.7296 80.6921 19.9298C80.6921 20.8862 81.405 21.449 83.1487 21.8799L84.6392 22.2458C87.415 22.9022 88.5683 24.0173 88.5683 25.9961C88.5683 28.5271 86.5522 30.1124 83.3455 30.1124C80.3452 30.1124 78.3196 28.5644 78.1887 26.1174L80.2613 26.1175Z" fill="white"/>
<path d="M92.9377 17.6892V20.0234H94.8134V21.6267H92.9377V27.0644C92.9377 27.9091 93.3134 28.3027 94.1379 28.3027C94.3605 28.2989 94.5829 28.2832 94.8038 28.2559V29.8496C94.4332 29.9189 94.0564 29.9503 93.6793 29.9433C91.6824 29.9433 90.9036 29.1932 90.9036 27.2803V21.6267H89.4695V20.0234H90.9035V17.6892H92.9377Z" fill="white"/>
<path d="M95.8997 24.9557C95.8997 21.8523 97.7276 19.9021 100.578 19.9021C103.437 19.9021 105.257 21.8522 105.257 24.9557C105.257 28.0676 103.447 30.0093 100.578 30.0093C97.7094 30.0093 95.8997 28.0676 95.8997 24.9557ZM103.194 24.9557C103.194 22.8268 102.218 21.5704 100.578 21.5704C98.9372 21.5704 97.9627 22.8364 97.9627 24.9557C97.9627 27.0931 98.9372 28.34 100.578 28.34C102.218 28.34 103.194 27.0931 103.194 24.9557Z" fill="white"/>
<path d="M106.926 20.0234H108.857V21.7022H108.904C109.035 21.1779 109.342 20.7145 109.773 20.39C110.206 20.0654 110.736 19.8996 111.277 19.9202C111.51 19.9193 111.742 19.9447 111.97 19.9957V21.8895C111.676 21.7995 111.368 21.7582 111.06 21.7671C110.766 21.7552 110.473 21.8071 110.2 21.9192C109.929 22.0312 109.684 22.2009 109.484 22.4165C109.283 22.6321 109.132 22.8885 109.04 23.1682C108.948 23.4478 108.917 23.744 108.951 24.0364V29.8869H106.926V20.0234Z" fill="white"/>
<path d="M121.305 26.9899C121.033 28.7804 119.289 30.0092 117.057 30.0092C114.189 30.0092 112.408 28.0868 112.408 25.0025C112.408 21.9086 114.198 19.9021 116.972 19.9021C119.702 19.9021 121.417 21.7767 121.417 24.7674V25.461H114.451V25.5833C114.419 25.9464 114.465 26.3121 114.584 26.6562C114.704 27.0003 114.896 27.3149 115.148 27.5791C115.398 27.8434 115.702 28.0512 116.04 28.1888C116.378 28.3264 116.74 28.3906 117.104 28.3772C117.583 28.422 118.063 28.3112 118.474 28.0613C118.884 27.8114 119.203 27.4355 119.382 26.9899H121.305ZM114.461 24.046H119.392C119.411 23.7196 119.361 23.393 119.246 23.0867C119.133 22.7803 118.956 22.5009 118.73 22.2658C118.502 22.0307 118.229 21.8451 117.927 21.7207C117.624 21.5963 117.299 21.5356 116.972 21.5427C116.643 21.5407 116.317 21.604 116.012 21.729C115.705 21.8541 115.429 22.0383 115.196 22.271C114.961 22.5037 114.776 22.7804 114.651 23.085C114.524 23.3897 114.46 23.7164 114.461 24.046Z" fill="white"/>
<path d="M42.1609 8.9231H43.0302C43.1797 8.94172 43.3316 8.92909 43.4762 8.88616C43.6208 8.84324 43.7548 8.77079 43.8699 8.67339C43.9851 8.576 44.0789 8.45594 44.1452 8.32052C44.2117 8.1851 44.2493 8.03747 44.2558 7.88682C44.2558 7.28731 43.8047 6.90005 43.0398 6.90005C42.8865 6.87863 42.7303 6.88814 42.5809 6.92802C42.4313 6.9679 42.2912 7.03735 42.169 7.13225C42.0466 7.22716 41.9446 7.34561 41.8689 7.4806C41.7931 7.61558 41.7453 7.76439 41.728 7.91821H40.7736C40.79 7.63899 40.8637 7.36613 40.9902 7.11664C41.1167 6.86713 41.293 6.64635 41.5085 6.46799C41.724 6.28965 41.9739 6.15757 42.2426 6.07998C42.5114 6.00239 42.7932 5.98095 43.0706 6.017C44.3505 6.017 45.2517 6.73354 45.2517 7.765C45.2546 8.11055 45.139 8.44668 44.9241 8.7173C44.7092 8.98781 44.408 9.1765 44.0707 9.25178V9.32837C44.4705 9.34613 44.847 9.52142 45.118 9.81601C45.3889 10.1106 45.5322 10.5004 45.5165 10.9003C45.487 11.1878 45.4003 11.4665 45.2616 11.7201C45.1229 11.9737 44.935 12.197 44.7089 12.377C44.4827 12.5569 44.2229 12.6901 43.9448 12.7683C43.6665 12.8466 43.3755 12.8686 43.0887 12.8329C42.8013 12.8721 42.509 12.8531 42.2291 12.7768C41.9492 12.7006 41.6875 12.5688 41.4596 12.3893C41.2318 12.2098 41.0424 11.9863 40.9028 11.732C40.7631 11.4777 40.6762 11.198 40.647 10.9094H41.6163C41.6748 11.5312 42.2461 11.9324 43.0887 11.9324C43.9312 11.9324 44.4813 11.4819 44.4813 10.8466C44.4813 10.2024 43.9632 9.80566 43.0578 9.80566H42.1609V8.9231Z" fill="white"/>
<path d="M46.6177 11.2882C46.6177 10.4051 47.2763 9.89597 48.4423 9.82363L49.7711 9.74704V9.32368C49.7711 8.80554 49.4296 8.51292 48.7668 8.51292C48.2263 8.51292 47.8529 8.71131 47.7444 9.05819H46.8071C46.906 8.21561 47.6996 7.67511 48.8125 7.67511C50.0424 7.67511 50.7362 8.2874 50.7362 9.32368V12.6755H49.803V11.9861H49.7265C49.571 12.2334 49.3527 12.4349 49.0938 12.5703C48.8349 12.7057 48.5447 12.7698 48.253 12.7563C48.047 12.7778 47.8389 12.7558 47.6419 12.6918C47.4449 12.6279 47.2637 12.5234 47.1096 12.385C46.9556 12.2467 46.8321 12.0776 46.7474 11.8887C46.6627 11.6998 46.6185 11.4952 46.6177 11.2882ZM49.7711 10.869V10.4588L48.5732 10.5355C47.8975 10.5807 47.5911 10.8105 47.5911 11.243C47.5911 11.6844 47.9741 11.9414 48.5008 11.9414C48.6551 11.957 48.811 11.9414 48.9592 11.8955C49.1073 11.8497 49.2448 11.7745 49.3633 11.6745C49.4819 11.5744 49.579 11.4516 49.6491 11.3131C49.7192 11.1748 49.7607 11.0238 49.7711 10.869Z" fill="white"/>
<path d="M53.3054 8.58472V12.6755H52.3373V7.76979H55.5674V8.58472H53.3054Z" fill="white"/>
<path d="M61.4348 10.2205C61.4348 11.7792 60.6464 12.7563 59.408 12.7563C59.1041 12.7771 58.8004 12.7106 58.533 12.5646C58.2655 12.4186 58.0454 12.1993 57.8984 11.9324H57.8218V14.3065H56.8536V7.7698H57.7856V8.58058H57.858C58.0075 8.3043 58.2306 8.07478 58.5025 7.91736C58.7743 7.75993 59.0845 7.68071 59.3984 7.68844C60.6464 7.68841 61.4348 8.66131 61.4348 10.2205ZM60.439 10.2205C60.439 9.18424 59.9485 8.55814 59.1283 8.55814C58.3134 8.55814 57.8037 9.19753 57.8037 10.2248C57.8037 11.2472 58.3132 11.8872 59.124 11.8872C59.9485 11.8872 60.439 11.2611 60.439 10.2205Z" fill="white"/>
<path d="M62.7242 14.4325V13.599C62.829 13.6123 62.9346 13.6183 63.0401 13.6171C63.2465 13.6323 63.4511 13.5709 63.6148 13.4445C63.7786 13.3181 63.8899 13.1358 63.9275 12.9324L63.9998 12.6936L62.2241 7.76979H63.2785L64.5084 11.6663H64.5851L65.8107 7.76979H66.8373L65.0084 12.8781C64.5893 14.0718 64.1255 14.4549 63.1253 14.4549C63.0445 14.4549 62.8147 14.4458 62.7242 14.4325Z" fill="white"/>
<path d="M67.5916 11.2834H68.5556C68.6503 11.7159 69.0556 11.9414 69.6227 11.9414C70.2674 11.9414 70.6632 11.6573 70.6632 11.2158C70.6632 10.7429 70.3078 10.5174 69.6227 10.5174H68.8885V9.76513H69.6099C70.1951 9.76513 70.4929 9.54016 70.4929 9.12998C70.4929 8.76992 70.2047 8.49483 69.6099 8.49483C69.0684 8.49483 68.6726 8.72471 68.6098 9.1119H67.6767C67.7466 8.66697 67.9881 8.26714 68.3497 7.99842C68.7111 7.72971 69.1637 7.61363 69.6099 7.67513C70.776 7.67513 71.443 8.20232 71.443 9.03106C71.4485 9.26191 71.3745 9.48754 71.2335 9.67035C71.0926 9.85316 70.8931 9.98204 70.6685 10.0354V10.112C70.9359 10.1465 71.1814 10.2779 71.3582 10.4814C71.5351 10.6849 71.6312 10.9462 71.6281 11.2158C71.6281 12.1484 70.8345 12.7655 69.6227 12.7655C68.5513 12.7654 67.6811 12.2743 67.5916 11.2834Z" fill="white"/>
<path d="M73.0224 12.6755V7.76979H73.9821V11.144H74.0587L76.3195 7.7698H77.2791V12.6755H76.3195V9.28327H76.2472L73.9821 12.6755H73.0224Z" fill="white"/>
<path d="M82.5657 8.58471H81.0208V12.6755H80.0516V8.58471H78.5068V7.76984H82.5657V8.58471Z" fill="white"/>
<path d="M87.7811 11.3509C87.6491 11.7992 87.3638 12.187 86.9751 12.4464C86.5864 12.7058 86.1189 12.8204 85.6542 12.7701C85.331 12.7786 85.0098 12.7168 84.713 12.5888C84.4161 12.4607 84.1507 12.2695 83.9351 12.0287C83.7194 11.7878 83.5588 11.5028 83.4643 11.1936C83.3699 10.8844 83.344 10.5583 83.3881 10.2381C83.345 9.91677 83.3715 9.59005 83.4658 9.27988C83.56 8.96972 83.7198 8.68352 83.9342 8.44047C84.1487 8.19741 84.4129 8.00332 84.7089 7.87127C85.0049 7.73922 85.3259 7.67232 85.65 7.67509C87.015 7.67509 87.8396 8.6077 87.8396 10.1482V10.486H84.3754V10.5403C84.3601 10.7202 84.3826 10.9015 84.4415 11.0725C84.5004 11.2433 84.5944 11.3999 84.7174 11.5322C84.8404 11.6646 84.9899 11.7698 85.1559 11.841C85.3221 11.9121 85.5012 11.9478 85.6819 11.9457C85.9133 11.9733 86.1478 11.9315 86.3554 11.8256C86.5631 11.7197 86.7345 11.5544 86.8479 11.3509H87.7811ZM84.3754 9.76992H86.8522C86.8644 9.60541 86.8421 9.44003 86.7867 9.28468C86.7313 9.12921 86.6439 8.98715 86.5303 8.86742C86.4166 8.7478 86.2793 8.65313 86.1269 8.58972C85.9746 8.52631 85.8107 8.49537 85.6457 8.49908C85.4782 8.49679 85.3119 8.52817 85.1568 8.59124C85.0015 8.65421 84.8607 8.7478 84.7423 8.86622C84.6238 8.98475 84.5304 9.12573 84.4673 9.28097C84.4043 9.43622 84.373 9.60247 84.3754 9.76992Z" fill="white"/>
<path d="M91.8855 7.76979H94.0974C95.0571 7.76979 95.6199 8.25603 95.6199 9.01723C95.6214 9.25876 95.5399 9.49343 95.389 9.68212C95.2382 9.8707 95.0271 10.0019 94.7911 10.0534V10.1301C95.0776 10.1482 95.3462 10.2756 95.5414 10.486C95.7366 10.6965 95.8436 10.974 95.8401 11.2609C95.8401 12.1169 95.1965 12.6755 94.1198 12.6755H91.8855V7.76979ZM92.8452 8.51292V9.78322H93.8049C94.3901 9.78322 94.6698 9.55825 94.6698 9.14328C94.6698 8.76077 94.4262 8.51292 93.9123 8.51292H92.8452ZM92.8452 10.495V11.9324H93.9932C94.5656 11.9324 94.872 11.6797 94.872 11.2158C94.872 10.7248 94.5252 10.4951 93.8719 10.4951L92.8452 10.495Z" fill="white"/>
</svg>
