<svg width="135" height="40" viewBox="0 0 135 40" fill="none" xmlns="http://www.w3.org/2000/svg">
<rect x="0.5" y="0.5" width="134" height="39" rx="6.5" fill="black" stroke="#A6A6A6"/>
<path d="M68.17 20.896C67.3303 20.8999 66.5106 21.1526 65.8143 21.622C65.118 22.0913 64.5764 22.7565 64.2578 23.5334C63.9392 24.3103 63.8579 25.1642 64.0241 25.9873C64.1904 26.8104 64.5967 27.5658 65.1919 28.1582C65.787 28.7506 66.5443 29.1534 67.3682 29.3157C68.1921 29.4781 69.0456 29.3928 69.821 29.0705C70.5964 28.7483 71.259 28.2035 71.7251 27.5051C72.1912 26.8066 72.44 25.9857 72.44 25.146C72.4482 24.5839 72.3431 24.026 72.1312 23.5053C71.9192 22.9847 71.6047 22.512 71.2063 22.1155C70.8078 21.719 70.3337 21.4066 69.8121 21.1971C69.2905 20.9876 68.732 20.8852 68.17 20.896ZM68.17 27.726C67.6536 27.7621 67.1382 27.642 66.691 27.3814C66.2437 27.1207 65.8852 26.7315 65.662 26.2644C65.4389 25.7973 65.3614 25.2739 65.4397 24.7621C65.518 24.2504 65.7484 23.7741 66.101 23.395C66.4536 23.016 66.912 22.7518 67.4168 22.6368C67.9215 22.5218 68.4492 22.5612 68.9312 22.7501C69.4132 22.9389 69.8273 23.2684 70.1195 23.6957C70.4118 24.123 70.5687 24.6283 70.57 25.146C70.5861 25.474 70.5364 25.8019 70.4237 26.1104C70.3111 26.4189 70.1378 26.7017 69.9141 26.9422C69.6905 27.1826 69.4209 27.3759 69.1214 27.5105C68.8218 27.6451 68.4983 27.7184 68.17 27.726ZM58.86 20.896C58.0199 20.898 57.1992 21.1489 56.5016 21.6171C55.804 22.0853 55.2608 22.7497 54.9407 23.5265C54.6205 24.3033 54.5378 25.1575 54.7029 25.9812C54.868 26.805 55.2736 27.5613 55.8683 28.1547C56.4631 28.7481 57.2204 29.1519 58.0445 29.3151C58.8687 29.4782 59.7227 29.3935 60.4987 29.0715C61.2747 28.7496 61.9379 28.2048 62.4044 27.5061C62.871 26.8074 63.12 25.9861 63.12 25.146C63.1282 24.5839 63.0231 24.026 62.8112 23.5053C62.5992 22.9847 62.2847 22.512 61.8863 22.1155C61.4878 21.719 61.0137 21.4066 60.4921 21.1971C59.9705 20.9876 59.412 20.8852 58.85 20.896H58.86ZM58.86 27.726C58.3433 27.7641 57.8271 27.6459 57.3786 27.3866C56.9301 27.1272 56.5701 26.7389 56.3454 26.2721C56.1206 25.8053 56.0417 25.2816 56.1187 24.7693C56.1958 24.257 56.4252 23.7798 56.7773 23.3997C57.1294 23.0196 57.5877 22.7544 58.0927 22.6384C58.5976 22.5225 59.1258 22.5613 59.6084 22.7497C60.091 22.9381 60.5057 23.2675 60.7985 23.6949C61.0913 24.1223 61.2486 24.6279 61.25 25.146C61.2661 25.474 61.2164 25.8019 61.1037 26.1104C60.9911 26.4189 60.8178 26.7017 60.5941 26.9422C60.3705 27.1826 60.1009 27.3759 59.8014 27.5105C59.5018 27.6451 59.1783 27.7184 58.85 27.726H58.86ZM47.77 22.206V24.006H52.09C52.0223 24.8538 51.6699 25.6538 51.09 26.276C50.6578 26.7162 50.1382 27.0611 49.5647 27.2885C48.9912 27.5158 48.3764 27.6206 47.76 27.596C46.487 27.596 45.2661 27.0903 44.3659 26.1901C43.4657 25.2899 42.96 24.069 42.96 22.796C42.96 21.523 43.4657 20.3021 44.3659 19.4019C45.2661 18.5017 46.487 17.996 47.76 17.996C48.9778 17.9761 50.1538 18.44 51.03 19.286L52.3 18.016C51.7085 17.417 51.0028 16.9429 50.2246 16.6217C49.4465 16.3004 48.6118 16.1387 47.77 16.146C46.881 16.1114 45.9942 16.2566 45.1626 16.573C44.3311 16.8893 43.572 17.3703 42.9308 17.987C42.2896 18.6037 41.7794 19.3436 41.431 20.1622C41.0826 20.9808 40.903 21.8613 40.903 22.751C40.903 23.6407 41.0826 24.5212 41.431 25.3398C41.7794 26.1584 42.2896 26.8982 42.9308 27.515C43.572 28.1317 44.3311 28.6127 45.1626 28.929C45.9942 29.2454 46.881 29.3906 47.77 29.356C48.626 29.3947 49.4803 29.2496 50.2754 28.9305C51.0706 28.6114 51.7882 28.1256 52.38 27.506C53.4277 26.3549 53.9871 24.8418 53.94 23.286C53.9432 22.907 53.9097 22.5285 53.84 22.156L47.77 22.206ZM93.08 23.606C92.8192 22.8387 92.3315 22.1688 91.6815 21.6848C91.0315 21.2009 90.2498 20.9258 89.44 20.896C88.893 20.8949 88.3516 21.0061 87.8492 21.2225C87.3469 21.439 86.8943 21.7562 86.5194 22.1545C86.1445 22.5529 85.8553 23.0238 85.6696 23.5384C85.484 24.0529 85.4058 24.6001 85.44 25.146C85.4279 25.7049 85.5285 26.2605 85.7359 26.7797C85.9433 27.2988 86.2532 27.7709 86.6471 28.1676C87.041 28.5643 87.5108 28.8775 88.0285 29.0886C88.5461 29.2996 89.101 29.4042 89.66 29.396C90.3595 29.3998 91.049 29.23 91.6668 28.9019C92.2846 28.5738 92.8114 28.0976 93.2 27.516L91.75 26.516C91.5336 26.8768 91.2272 27.1752 90.8609 27.382C90.4945 27.5889 90.0807 27.6971 89.66 27.696C89.2268 27.7125 88.7987 27.5983 88.4313 27.3682C88.064 27.1382 87.7743 26.8029 87.6 26.406L93.29 24.056L93.08 23.606ZM87.28 25.026C87.2597 24.7167 87.3014 24.4064 87.4025 24.1134C87.5037 23.8204 87.6622 23.5505 87.869 23.3196C88.0757 23.0886 88.3265 22.9013 88.6065 22.7684C88.8866 22.6356 89.1904 22.56 89.5 22.546C89.8226 22.5247 90.1443 22.5987 90.4252 22.7587C90.7061 22.9187 90.9338 23.1577 91.08 23.446L87.28 25.026ZM82.66 29.146H84.53V16.646H82.66V29.146ZM79.6 21.846H79.53C79.2482 21.5309 78.9029 21.2789 78.5169 21.1066C78.1309 20.9342 77.7128 20.8454 77.29 20.846C76.1972 20.899 75.1667 21.3704 74.412 22.1626C73.6573 22.9547 73.2363 24.0069 73.2363 25.101C73.2363 26.1951 73.6573 27.2473 74.412 28.0394C75.1667 28.8316 76.1972 29.303 77.29 29.356C77.7138 29.3631 78.1339 29.2773 78.521 29.1045C78.908 28.9317 79.2524 28.6762 79.53 28.356H79.59V28.966C79.59 30.596 78.72 31.466 77.32 31.466C76.8537 31.4551 76.4012 31.3057 76.0201 31.0368C75.6391 30.7679 75.3466 30.3916 75.18 29.956L73.55 30.636C73.8568 31.3824 74.3796 32.02 75.0513 32.4672C75.7231 32.9145 76.5131 33.1508 77.32 33.146C79.51 33.146 81.32 31.856 81.32 28.716V21.146H79.6V21.846ZM77.46 27.726C76.815 27.6691 76.2146 27.3727 75.7773 26.8952C75.34 26.4176 75.0974 25.7935 75.0974 25.146C75.0974 24.4984 75.34 23.8744 75.7773 23.3968C76.2146 22.9193 76.815 22.6228 77.46 22.566C77.7798 22.5824 78.0931 22.6627 78.3815 22.802C78.6698 22.9414 78.9273 23.1371 79.1389 23.3775C79.3504 23.6179 79.5117 23.8983 79.6132 24.202C79.7147 24.5057 79.7544 24.8267 79.73 25.146C79.7573 25.4667 79.7192 25.7896 79.6182 26.0951C79.5171 26.4007 79.3551 26.6826 79.142 26.9238C78.9288 27.165 78.669 27.3604 78.3782 27.4983C78.0874 27.6362 77.7716 27.7136 77.45 27.726H77.46ZM101.84 16.646H97.37V29.146H99.24V24.406H101.85C102.383 24.4443 102.918 24.3724 103.422 24.1947C103.926 24.0171 104.388 23.7375 104.779 23.3735C105.17 23.0095 105.482 22.5687 105.695 22.0788C105.909 21.5889 106.019 21.0603 106.019 20.526C106.019 19.9917 105.909 19.4631 105.695 18.9732C105.482 18.4833 105.17 18.0425 104.779 17.6785C104.388 17.3145 103.926 17.0349 103.422 16.8573C102.918 16.6796 102.383 16.6077 101.85 16.646H101.84ZM101.84 22.646H99.23V18.386H101.88C102.449 18.386 102.994 18.612 103.397 19.0143C103.799 19.4165 104.025 19.9621 104.025 20.531C104.025 21.0999 103.799 21.6455 103.397 22.0477C102.994 22.45 102.449 22.676 101.88 22.676L101.84 22.646ZM113.37 20.846C112.689 20.8053 112.011 20.9644 111.42 21.3037C110.828 21.643 110.349 22.1478 110.04 22.756L111.7 23.446C111.864 23.1443 112.112 22.8968 112.413 22.7334C112.715 22.5701 113.058 22.498 113.4 22.526C113.637 22.4983 113.878 22.5181 114.108 22.5843C114.337 22.6505 114.551 22.7618 114.738 22.9117C114.924 23.0616 115.078 23.247 115.192 23.4572C115.306 23.6674 115.376 23.8982 115.4 24.136V24.266C114.799 23.948 114.13 23.7831 113.45 23.786C111.66 23.786 109.85 24.786 109.85 26.596C109.868 26.9819 109.963 27.3604 110.129 27.709C110.295 28.0577 110.53 28.3694 110.819 28.6258C111.108 28.8822 111.446 29.078 111.812 29.2017C112.178 29.3254 112.565 29.3745 112.95 29.346C113.421 29.3798 113.892 29.2862 114.315 29.0751C114.737 28.864 115.095 28.543 115.35 28.146H115.41V29.146H117.21V24.336C117.21 22.146 115.55 20.876 113.42 20.876L113.37 20.846ZM113.14 27.696C112.53 27.696 111.68 27.386 111.68 26.636C111.68 25.636 112.74 25.306 113.68 25.306C114.274 25.2913 114.861 25.4364 115.38 25.726C115.317 26.2674 115.061 26.768 114.659 27.1355C114.257 27.503 113.735 27.7127 113.19 27.726L113.14 27.696ZM123.77 21.146L121.63 26.566H121.57L119.35 21.146H117.35L120.68 28.726L118.78 32.936H120.73L125.85 21.146H123.77ZM106.96 29.146H108.83V16.646H106.96V29.146Z" fill="white"/>
<path d="M10.47 6.68597C10.1441 7.07708 9.97955 7.57777 10.01 8.08597V30.206C9.97955 30.7142 10.1441 31.2149 10.47 31.606L10.54 31.676L22.93 19.296V19.006L10.54 6.61597L10.47 6.68597Z" fill="url(#paint0_linear)"/>
<path d="M27.03 23.426L22.93 19.296V19.006L27.03 14.866L27.12 14.916L32.03 17.706C33.43 18.496 33.43 19.796 32.03 20.596L27.14 23.376L27.03 23.426Z" fill="url(#paint1_linear)"/>
<path d="M27.15 23.366L22.93 19.146L10.47 31.606C10.7554 31.8569 11.1194 32.0001 11.4992 32.0111C11.879 32.022 12.2507 31.9 12.55 31.666L27.16 23.366" fill="url(#paint2_linear)"/>
<path d="M27.15 14.926L12.54 6.62597C12.2406 6.39199 11.869 6.26992 11.4892 6.28088C11.1094 6.29184 10.7454 6.43512 10.46 6.68597L22.93 19.146L27.15 14.926Z" fill="url(#paint3_linear)"/>
<path opacity="0.2" d="M27.03 23.276L12.54 31.526C12.2513 31.7419 11.9005 31.8585 11.54 31.8585C11.1795 31.8585 10.8287 31.7419 10.54 31.526L10.47 31.596L10.54 31.666C10.8281 31.8834 11.1791 32.001 11.54 32.001C11.9009 32.001 12.2519 31.8834 12.54 31.666L27.15 23.366L27.03 23.276Z" fill="black"/>
<path opacity="0.12" d="M10.47 31.466C10.1441 31.0749 9.97955 30.5742 10.01 30.066V30.216C9.97955 30.7242 10.1441 31.2249 10.47 31.616L10.54 31.546L10.47 31.466ZM32.03 20.446L27.03 23.276L27.12 23.366L32.03 20.586C32.3086 20.4551 32.5477 20.2531 32.7233 20.0003C32.8989 19.7474 33.0047 19.4528 33.03 19.146C32.9738 19.4247 32.8544 19.6868 32.681 19.9122C32.5077 20.1375 32.2849 20.3202 32.03 20.446Z" fill="black"/>
<path opacity="0.25" d="M12.54 6.76596L32.03 17.846C32.285 17.9718 32.5077 18.1545 32.681 18.3798C32.8544 18.6052 32.9738 18.8673 33.03 19.146C33.0047 18.8392 32.8989 18.5446 32.7233 18.2917C32.5478 18.0389 32.3086 17.8369 32.03 17.706L12.54 6.62596C11.14 5.83596 10 6.49596 10 8.09596V8.24596C10.03 6.63596 11.15 5.97596 12.54 6.76596Z" fill="white"/>
<path d="M42.14 13.416H41.4V11.416H42.03C42.3173 11.1116 42.5342 10.7478 42.6655 10.3504C42.7968 9.953 42.8393 9.5316 42.79 9.116V6.14597H46.79V11.406H47.46V13.406H46.72V12.146H42.14V13.416ZM43.53 9.146C43.5767 9.9526 43.3779 10.7545 42.96 11.446H45.96V6.88597H43.53V9.146ZM53.44 11.366C52.8554 11.9473 52.0645 12.2737 51.24 12.2737C50.4155 12.2737 49.6246 11.9473 49.04 11.366C48.4718 10.7645 48.1552 9.9684 48.1552 9.141C48.1552 8.31353 48.4718 7.51745 49.04 6.91597C49.3281 6.62572 49.6709 6.39535 50.0485 6.23814C50.426 6.08094 50.831 6 51.24 6C51.649 6 52.0539 6.08094 52.4315 6.23814C52.8091 6.39535 53.1518 6.62572 53.44 6.91597C54.0105 7.5163 54.3286 8.31282 54.3286 9.141C54.3286 9.9692 54.0105 10.7657 53.44 11.366ZM49.61 10.866C50.0429 11.2971 50.629 11.5392 51.24 11.5392C51.851 11.5392 52.4371 11.2971 52.87 10.866C53.2972 10.395 53.5339 9.7819 53.5339 9.146C53.5339 8.51008 53.2972 7.89695 52.87 7.42597C52.4371 6.99485 51.851 6.7528 51.24 6.7528C50.629 6.7528 50.0429 6.99485 49.61 7.42597C49.1828 7.89695 48.9461 8.51008 48.9461 9.146C48.9461 9.7819 49.1828 10.395 49.61 10.866ZM58.21 12.276C57.7972 12.2842 57.387 12.2088 57.004 12.0543C56.6211 11.8997 56.2735 11.6693 55.982 11.3769C55.6905 11.0845 55.4612 10.736 55.3079 10.3526C55.1546 9.9693 55.0805 9.5588 55.09 9.146C55.0805 8.73318 55.1546 8.32272 55.3079 7.93932C55.4612 7.55593 55.6905 7.20752 55.982 6.91509C56.2735 6.62265 56.6211 6.39223 57.004 6.23771C57.387 6.08319 57.7972 6.00777 58.21 6.01597C58.6284 6.00561 59.0438 6.09021 59.4248 6.26341C59.8058 6.43661 60.1427 6.69391 60.41 7.01597L59.87 7.53597C59.6725 7.28522 59.4178 7.08538 59.1273 6.95317C58.8368 6.82095 58.5188 6.76019 58.2 6.77597C57.893 6.76799 57.5877 6.82237 57.3023 6.93581C57.017 7.04926 56.7577 7.21941 56.54 7.43597C56.1064 7.90977 55.866 8.52873 55.866 9.171C55.866 9.8132 56.1064 10.4322 56.54 10.906C56.7577 11.1226 57.017 11.2927 57.3023 11.4062C57.5877 11.5196 57.893 11.574 58.2 11.566C58.552 11.5629 58.8988 11.4814 59.2154 11.3274C59.5319 11.1735 59.8102 10.9509 60.03 10.676L60.57 11.216C60.2978 11.5461 59.9564 11.8124 59.57 11.996C59.1431 12.1893 58.6785 12.285 58.21 12.276ZM63.71 12.146H62.94V6.88597H61.26V6.14597H65.38V6.88597H63.71V12.146ZM70.68 6.14597L68.41 11.206C68.3191 11.5053 68.1376 11.769 67.8904 11.9607C67.6431 12.1524 67.3425 12.2626 67.03 12.276C66.8233 12.2734 66.6192 12.2292 66.43 12.146L66.63 11.436C66.7515 11.5068 66.8894 11.5447 67.03 11.546C67.177 11.5571 67.3238 11.5221 67.45 11.446C67.5705 11.344 67.6633 11.2133 67.72 11.066L67.94 10.586L65.94 6.15597H66.85L68.33 9.596L69.77 6.14597H70.68ZM71.55 12.146V6.14597H75.89V12.146H75.12V6.88597H72.32V12.146H71.55ZM77.26 12.146V6.14597H78.03V8.71597H81.03V6.14597H81.8V12.146H81.03V9.436H78.03V12.146H77.26ZM88.09 11.366C87.5054 11.9473 86.7145 12.2737 85.89 12.2737C85.0655 12.2737 84.2746 11.9473 83.69 11.366C83.1218 10.7645 82.8052 9.9684 82.8052 9.141C82.8052 8.31353 83.1218 7.51745 83.69 6.91597C83.9781 6.62572 84.3209 6.39535 84.6985 6.23814C85.076 6.08094 85.481 6 85.89 6C86.299 6 86.7039 6.08094 87.0815 6.23814C87.4591 6.39535 87.8018 6.62572 88.09 6.91597C88.6605 7.5163 88.9786 8.31282 88.9786 9.141C88.9786 9.9692 88.6605 10.7657 88.09 11.366ZM84.26 10.866C84.6929 11.2971 85.279 11.5392 85.89 11.5392C86.501 11.5392 87.0871 11.2971 87.52 10.866C87.9472 10.395 88.1839 9.7819 88.1839 9.146C88.1839 8.51008 87.9472 7.89695 87.52 7.42597C87.0871 6.99485 86.501 6.7528 85.89 6.7528C85.279 6.7528 84.6929 6.99485 84.26 7.42597C83.8328 7.89695 83.5961 8.51008 83.5961 9.146C83.5961 9.7819 83.8328 10.395 84.26 10.866ZM92.12 12.146V6.14597H94.29C94.7406 6.13746 95.1772 6.3021 95.51 6.60597C95.6771 6.75099 95.8103 6.93095 95.9001 7.13313C95.99 7.33531 96.0343 7.55476 96.03 7.77597C96.0347 8.04253 95.9579 8.30418 95.81 8.52597C95.6632 8.7414 95.4587 8.9112 95.22 9.016C95.5101 9.112 95.7645 9.2932 95.95 9.536C96.1423 9.781 96.2447 10.0846 96.24 10.396C96.2451 10.6265 96.1994 10.8554 96.106 11.0662C96.0127 11.2771 95.8741 11.4648 95.7 11.616C95.3518 11.9372 94.8937 12.1126 94.42 12.106L92.12 12.146ZM92.89 8.71597H94.29C94.4207 8.72143 94.5511 8.69831 94.672 8.64823C94.7929 8.59814 94.9014 8.52229 94.99 8.42597C95.0785 8.34569 95.15 8.2484 95.2001 8.1399C95.2502 8.0314 95.278 7.91392 95.2817 7.79446C95.2855 7.67501 95.2651 7.55602 95.2218 7.44461C95.1786 7.33319 95.1133 7.23163 95.03 7.14597C94.9464 7.05145 94.8431 6.97646 94.7273 6.92635C94.6115 6.87623 94.4861 6.8522 94.36 6.85597H92.93L92.89 8.71597ZM92.89 11.406H94.44C94.5754 11.4105 94.7102 11.3851 94.8347 11.3315C94.9591 11.2779 95.0702 11.1975 95.16 11.096C95.3363 10.9131 95.4364 10.67 95.44 10.416C95.44 10.1508 95.3346 9.8964 95.1471 9.7089C94.9596 9.5214 94.7052 9.416 94.44 9.416H92.92L92.89 11.406Z" fill="white" stroke="white" stroke-width="0.2" stroke-miterlimit="10"/>
<defs>
<linearGradient id="paint0_linear" x1="21.83" y1="7.85597" x2="5.04999" y2="24.636" gradientUnits="userSpaceOnUse">
<stop stop-color="#00A0FF"/>
<stop offset="0.01" stop-color="#00A1FF"/>
<stop offset="0.26" stop-color="#00BEFF"/>
<stop offset="0.51" stop-color="#00D2FF"/>
<stop offset="0.76" stop-color="#00DFFF"/>
<stop offset="1" stop-color="#00E3FF"/>
</linearGradient>
<linearGradient id="paint1_linear" x1="33.86" y1="19.146" x2="9.66999" y2="19.146" gradientUnits="userSpaceOnUse">
<stop stop-color="#FFE000"/>
<stop offset="0.41" stop-color="#FFBD00"/>
<stop offset="0.78" stop-color="#FFA500"/>
<stop offset="1" stop-color="#FF9C00"/>
</linearGradient>
<linearGradient id="paint2_linear" x1="24.86" y1="21.446" x2="2.1" y2="44.196" gradientUnits="userSpaceOnUse">
<stop stop-color="#FF3A44"/>
<stop offset="1" stop-color="#C31162"/>
</linearGradient>
<linearGradient id="paint3_linear" x1="7.32998" y1="-0.674031" x2="17.49" y2="9.486" gradientUnits="userSpaceOnUse">
<stop stop-color="#32A071"/>
<stop offset="0.07" stop-color="#2DA771"/>
<stop offset="0.48" stop-color="#15CF74"/>
<stop offset="0.8" stop-color="#06E775"/>
<stop offset="1" stop-color="#00F076"/>
</linearGradient>
</defs>
</svg>
