<?xml version="1.0" encoding="utf-8"?>
<svg version="1.1" id="Capa_1" x="0px" y="0px" viewBox="0 0 57 57" style="enable-background:new 0 0 57 57;" xmlns="http://www.w3.org/2000/svg">
  <g>
    <path d="M 28.5 16.459 C 28.028 16.459 27.648 16.814 27.648 17.252 C 27.648 17.691 28.028 18.045 28.5 18.045 L 43.823 18.045 C 44.293 18.045 44.674 17.691 44.674 17.252 C 44.674 16.814 44.293 16.459 43.823 16.459 L 28.5 16.459 Z" style=""/>
    <path d="M 44.674 28.353 C 44.674 27.915 44.293 27.56 43.823 27.56 L 28.5 27.56 C 28.028 27.56 27.648 27.915 27.648 28.353 C 27.648 28.792 28.028 29.146 28.5 29.146 L 43.823 29.146 C 44.293 29.146 44.674 28.792 44.674 28.353 Z" style=""/>
    <path d="M 23.034 12.686 C 22.678 12.401 22.14 12.438 21.834 12.771 L 16.515 18.55 L 13.262 16.278 C 12.886 16.016 12.353 16.085 12.071 16.436 C 11.788 16.786 11.865 17.283 12.241 17.545 L 16.132 20.264 C 16.285 20.371 16.465 20.423 16.642 20.423 C 16.884 20.423 17.122 20.329 17.289 20.145 L 23.126 13.802 C 23.432 13.471 23.391 12.971 23.034 12.686 Z" style=""/>
    <path d="M 23.034 23.787 C 22.678 23.502 22.14 23.539 21.834 23.872 L 16.515 29.651 L 13.262 27.379 C 12.886 27.117 12.353 27.186 12.071 27.537 C 11.788 27.887 11.865 28.384 12.241 28.646 L 16.132 31.365 C 16.285 31.472 16.465 31.524 16.642 31.524 C 16.884 31.524 17.122 31.43 17.289 31.246 L 23.126 24.903 C 23.432 24.572 23.391 24.072 23.034 23.787 Z" style=""/>
    <path d="M 21.834 35.767 L 16.515 41.545 L 13.262 39.272 C 12.886 39.01 12.353 39.08 12.071 39.431 C 11.788 39.781 11.865 40.278 12.241 40.54 L 16.132 43.259 C 16.285 43.366 16.465 43.418 16.642 43.418 C 16.884 43.418 17.122 43.323 17.289 43.14 L 23.126 36.798 C 23.432 36.465 23.392 35.965 23.035 35.68 C 22.678 35.396 22.14 35.434 21.834 35.767 Z" style=""/>
    <path d="M 25.095 48.176 L 15.88 48.176 C 11.103 48.176 7.217 44.557 7.217 40.107 L 7.217 16.599 C 7.217 12.149 11.103 8.53 15.88 8.53 L 41.12 8.53 C 45.896 8.53 49.782 12.149 49.782 16.599 L 49.782 33.111 C 49.782 33.549 50.162 33.904 50.633 33.904 C 51.104 33.904 51.484 33.549 51.484 33.111 L 51.484 16.599 C 51.484 11.275 46.834 6.944 41.12 6.944 L 15.88 6.944 C 10.164 6.944 5.515 11.275 5.515 16.599 L 5.515 40.107 C 5.515 45.431 10.164 49.762 15.88 49.762 L 25.095 49.762 C 25.565 49.762 25.946 49.408 25.946 48.969 C 25.946 48.531 25.565 48.176 25.095 48.176 Z" style=""/>
    <path d="M 50.946 38.01 L 49.12 38.01 C 48.981 38.01 48.848 38.061 48.747 38.152 L 48.357 38.508 C 47.701 37.061 46.758 35.632 45.484 34.152 C 44.796 33.352 43.778 32.893 42.692 32.893 L 35.381 32.893 C 34.293 32.893 33.276 33.352 32.588 34.152 C 31.274 35.679 30.35 37.073 29.709 38.502 L 29.326 38.152 C 29.224 38.061 29.091 38.01 28.952 38.01 L 27.126 38.01 C 26.828 38.01 26.586 38.238 26.586 38.523 L 26.586 39.71 C 26.586 39.98 26.807 40.205 27.091 40.222 L 28.969 40.334 C 28.686 41.122 28.464 42.296 28.464 43.952 C 28.464 45.39 28.766 46.334 29.291 46.944 L 29.291 49.71 C 29.291 49.948 29.494 50.14 29.742 50.14 L 31.819 50.14 C 32.069 50.14 32.272 49.948 32.272 49.71 L 32.272 47.992 L 45.801 47.992 L 45.801 49.71 C 45.801 49.948 46.003 50.14 46.252 50.14 L 48.329 50.14 C 48.579 50.14 48.781 49.948 48.781 49.71 L 48.781 46.944 C 49.306 46.334 49.608 45.39 49.608 43.952 C 49.608 42.296 49.387 41.122 49.104 40.334 L 50.981 40.222 C 51.265 40.205 51.486 39.98 51.486 39.71 L 51.486 38.523 C 51.486 38.238 51.244 38.01 50.946 38.01 Z M 34.129 35.351 C 34.438 34.993 34.894 34.787 35.381 34.787 L 42.692 34.787 C 43.178 34.787 43.634 34.993 43.943 35.351 C 44.833 36.386 45.537 37.377 46.081 38.364 L 31.979 38.367 C 32.51 37.401 33.218 36.411 34.129 35.351 Z M 32.593 45.892 C 31.559 45.892 30.721 45.571 30.721 44.792 C 30.721 44.014 31.025 43.381 32.058 43.381 C 33.092 43.381 34.465 44.014 34.465 44.792 C 34.465 45.571 33.627 45.892 32.593 45.892 Z M 40.999 45.73 L 37.074 45.73 C 36.482 45.73 36.001 45.272 36.001 44.71 C 36.001 44.552 36.135 44.424 36.3 44.424 L 41.772 44.424 C 41.938 44.424 42.071 44.552 42.071 44.71 C 42.071 45.272 41.59 45.73 40.999 45.73 Z M 45.479 45.892 C 44.446 45.892 43.607 45.571 43.607 44.792 C 43.607 44.014 44.98 43.381 46.013 43.381 C 47.048 43.381 47.352 44.014 47.352 44.792 C 47.352 45.571 46.514 45.892 45.479 45.892 Z" style="fill: rgb(225, 0, 43);"/>
  </g>
  <g/>
  <g/>
  <g/>
  <g/>
  <g/>
  <g/>
  <g/>
  <g/>
  <g/>
  <g/>
  <g/>
  <g/>
  <g/>
  <g/>
  <g/>
</svg>