<?xml version="1.0" encoding="utf-8"?>
<svg version="1.1" id="Capa_1" x="0px" y="0px" viewBox="0 0 57 57" style="enable-background:new 0 0 57 57;" xmlns="http://www.w3.org/2000/svg">
  <g>
    <path d="M 28.5 16.459 C 28.028 16.459 27.648 16.814 27.648 17.252 C 27.648 17.691 28.028 18.045 28.5 18.045 L 43.823 18.045 C 44.293 18.045 44.674 17.691 44.674 17.252 C 44.674 16.814 44.293 16.459 43.823 16.459 L 28.5 16.459 Z" style=""/>
    <path d="M 44.674 28.353 C 44.674 27.915 44.293 27.56 43.823 27.56 L 28.5 27.56 C 28.028 27.56 27.648 27.915 27.648 28.353 C 27.648 28.792 28.028 29.146 28.5 29.146 L 43.823 29.146 C 44.293 29.146 44.674 28.792 44.674 28.353 Z" style=""/>
    <path d="M 23.034 12.686 C 22.678 12.401 22.14 12.438 21.834 12.771 L 16.515 18.55 L 13.262 16.278 C 12.886 16.016 12.353 16.085 12.071 16.436 C 11.788 16.786 11.865 17.283 12.241 17.545 L 16.132 20.264 C 16.285 20.371 16.465 20.423 16.642 20.423 C 16.884 20.423 17.122 20.329 17.289 20.145 L 23.126 13.802 C 23.432 13.471 23.391 12.971 23.034 12.686 Z" style=""/>
    <path d="M 23.034 23.787 C 22.678 23.502 22.14 23.539 21.834 23.872 L 16.515 29.651 L 13.262 27.379 C 12.886 27.117 12.353 27.186 12.071 27.537 C 11.788 27.887 11.865 28.384 12.241 28.646 L 16.132 31.365 C 16.285 31.472 16.465 31.524 16.642 31.524 C 16.884 31.524 17.122 31.43 17.289 31.246 L 23.126 24.903 C 23.432 24.572 23.391 24.072 23.034 23.787 Z" style=""/>
    <path d="M 21.834 35.767 L 16.515 41.545 L 13.262 39.272 C 12.886 39.01 12.353 39.08 12.071 39.431 C 11.788 39.781 11.865 40.278 12.241 40.54 L 16.132 43.259 C 16.285 43.366 16.465 43.418 16.642 43.418 C 16.884 43.418 17.122 43.323 17.289 43.14 L 23.126 36.798 C 23.432 36.465 23.392 35.965 23.035 35.68 C 22.678 35.396 22.14 35.434 21.834 35.767 Z" style=""/>
    <path d="M 25.095 48.176 L 15.88 48.176 C 11.103 48.176 7.217 44.557 7.217 40.107 L 7.217 16.599 C 7.217 12.149 11.103 8.53 15.88 8.53 L 41.12 8.53 C 45.896 8.53 49.782 12.149 49.782 16.599 L 49.782 33.111 C 49.782 33.549 50.162 33.904 50.633 33.904 C 51.104 33.904 51.484 33.549 51.484 33.111 L 51.484 16.599 C 51.484 11.275 46.834 6.944 41.12 6.944 L 15.88 6.944 C 10.164 6.944 5.515 11.275 5.515 16.599 L 5.515 40.107 C 5.515 45.431 10.164 49.762 15.88 49.762 L 25.095 49.762 C 25.565 49.762 25.946 49.408 25.946 48.969 C 25.946 48.531 25.565 48.176 25.095 48.176 Z" style=""/>
    <path d="M 39.171 34.358 C 39.065 34.75 38.515 34.65 38.21 34.831 C 37.708 35.003 37.222 35.225 36.757 35.479 C 36.29 35.041 35.816 34.608 35.344 34.172 C 34.404 35.041 33.461 35.91 32.52 36.779 C 32.993 37.214 33.461 37.652 33.937 38.083 C 33.486 38.776 33.147 39.532 32.934 40.31 C 32.269 40.31 31.603 40.31 30.937 40.31 C 30.937 41.54 30.937 42.768 30.937 43.997 C 31.603 43.997 32.269 43.997 32.934 43.997 C 33.152 44.779 33.479 45.532 33.935 46.222 C 33.463 46.658 32.991 47.092 32.52 47.528 C 33.461 48.398 34.404 49.267 35.344 50.137 C 35.815 49.702 36.289 49.268 36.757 48.831 C 37.509 49.247 38.326 49.556 39.171 49.753 C 39.171 50.368 39.171 50.982 39.171 51.596 C 40.501 51.596 41.833 51.596 43.165 51.596 C 43.165 50.982 43.165 50.368 43.165 49.753 C 44.011 49.556 44.826 49.247 45.579 48.831 C 46.046 49.268 46.52 49.702 46.99 50.137 C 47.933 49.267 48.875 48.398 49.818 47.528 C 49.346 47.092 48.875 46.658 48.402 46.222 C 48.853 45.529 49.187 44.78 49.402 43.997 C 50.068 43.997 50.732 43.997 51.398 43.997 C 51.398 42.768 51.398 41.54 51.398 40.31 C 50.732 40.31 50.068 40.31 49.402 40.31 C 49.187 39.528 48.852 38.778 48.402 38.083 C 48.877 37.651 49.346 37.214 49.818 36.779 C 48.875 35.91 47.933 35.041 46.99 34.172 C 46.519 34.608 46.045 35.041 45.579 35.479 C 44.826 35.064 44.011 34.75 43.165 34.558 C 43.165 33.943 43.165 33.327 43.165 32.712 C 41.833 32.712 40.501 32.712 39.171 32.712 C 39.171 33.26 39.171 33.81 39.171 34.358 Z M 41.168 37.854 C 43.525 37.802 45.687 39.65 45.821 41.826 C 46.018 43.869 44.429 45.897 42.268 46.341 C 40.217 46.814 37.909 45.839 37 44.087 C 36.008 42.316 36.571 39.929 38.32 38.748 C 39.132 38.175 40.142 37.848 41.168 37.854 Z" id="rect4025-1" style="color: rgb(0, 0, 0); fill-opacity: 1; fill-rule: nonzero; stroke: none; stroke-width: 10; marker: none; visibility: visible; display: inline; overflow: visible; fill: rgb(225, 0, 43);"/>
  </g>
  <g/>
  <g/>
  <g/>
  <g/>
  <g/>
  <g/>
  <g/>
  <g/>
  <g/>
  <g/>
  <g/>
  <g/>
  <g/>
  <g/>
  <g/>
</svg>